<?xml version="1.0" encoding="UTF-8" standalone="no"?>
<!-- Generator: Adobe Illustrator 14.0.0, SVG Export Plug-In . SVG Version: 6.00 Build 43363)  -->

<svg
   xmlns:dc="http://purl.org/dc/elements/1.1/"
   xmlns:cc="http://creativecommons.org/ns#"
   xmlns:rdf="http://www.w3.org/1999/02/22-rdf-syntax-ns#"
   xmlns:svg="http://www.w3.org/2000/svg"
   xmlns="http://www.w3.org/2000/svg"
   xmlns:sodipodi="http://sodipodi.sourceforge.net/DTD/sodipodi-0.dtd"
   xmlns:inkscape="http://www.inkscape.org/namespaces/inkscape"
   version="1.0"
   id="Layer_1"
   x="0px"
   y="0px"
   width="156.40939"
   height="175.4651"
   viewBox="0 0 156.40939 175.46511"
   enable-background="new 0 0 89.3 100"
   xml:space="preserve"
   inkscape:version="0.48.5 r10040"
   sodipodi:docname="nuclear_1.svg"><title
     id="title3004">nuclear symbol</title><metadata
     id="metadata19"><rdf:RDF><cc:Work
         rdf:about=""><dc:format>image/svg+xml</dc:format><dc:type
           rdf:resource="http://purl.org/dc/dcmitype/StillImage" /><dc:title>nuclear symbol</dc:title><dc:date>12/08/2014</dc:date><dc:creator><cc:Agent><dc:title>edited by Paul Sherman</dc:title></cc:Agent></dc:creator><dc:rights><cc:Agent><dc:title>pd</dc:title></cc:Agent></dc:rights><dc:publisher><cc:Agent><dc:title>wpclipart</dc:title></cc:Agent></dc:publisher><cc:license
           rdf:resource="http://creativecommons.org/licenses/publicdomain/" /></cc:Work><cc:License
         rdf:about="http://creativecommons.org/licenses/publicdomain/"><cc:permits
           rdf:resource="http://creativecommons.org/ns#Reproduction" /><cc:permits
           rdf:resource="http://creativecommons.org/ns#Distribution" /><cc:permits
           rdf:resource="http://creativecommons.org/ns#DerivativeWorks" /></cc:License></rdf:RDF></metadata><defs
     id="defs17" /><sodipodi:namedview
     pagecolor="#ffffff"
     bordercolor="#666666"
     borderopacity="1"
     objecttolerance="10"
     gridtolerance="10"
     guidetolerance="10"
     inkscape:pageopacity="0"
     inkscape:pageshadow="2"
     inkscape:window-width="1302"
     inkscape:window-height="839"
     id="namedview15"
     showgrid="false"
     fit-margin-top="4"
     fit-margin-left="4"
     fit-margin-right="4"
     fit-margin-bottom="4"
     inkscape:zoom="1.0181848"
     inkscape:cx="-27.447419"
     inkscape:cy="121.46511"
     inkscape:window-x="0"
     inkscape:window-y="0"
     inkscape:window-maximized="0"
     inkscape:current-layer="Layer_1" /><g
     id="g2996"
     transform="matrix(1.6619049,0,0,1.6746511,3.9995365,4.0000001)"><g
       id="g3"><circle
         id="circle5"
         r="8.0699997"
         cy="50.000999"
         cx="44.648998"
         d="m 52.718998,50.000999 c 0,4.456938 -3.613062,8.07 -8.07,8.07 -4.456938,0 -8.069999,-3.613062 -8.069999,-8.07 0,-4.456937 3.613061,-8.069999 8.069999,-8.069999 4.456938,0 8.07,3.613062 8.07,8.069999 z"
         sodipodi:cx="44.648998"
         sodipodi:cy="50.000999"
         sodipodi:rx="8.0699997"
         sodipodi:ry="8.0699997" /><path
         id="path7"
         d="M 44.649,50.001"
         inkscape:connector-curvature="0" /></g><path
       id="path9"
       d="M 22.954,50.001 C 22.954,22.387 32.667,0 44.649,0 56.634,0 66.349,22.387 66.349,50.001 66.349,77.615 56.634,100 44.649,100 32.667,100 22.954,77.615 22.954,50.001 z m 21.695,45.766 c 10.969,0 19.86,-20.489 19.86,-45.765 0,-25.277 -8.891,-45.765 -19.86,-45.765 -10.967,0 -19.858,20.488 -19.858,45.765 0,25.275 8.892,45.765 19.858,45.765 z"
       inkscape:connector-curvature="0" /><path
       id="path11"
       d="M 55.5,68.791 C 31.584,82.6 7.34,85.378 1.349,75.001 -4.642,64.623 9.887,45.017 33.802,31.21 57.717,17.404 81.961,14.622 87.952,25.001 93.944,35.378 79.414,54.984 55.5,68.791 z M 84.286,27.118 C 78.802,17.619 56.609,20.165 34.722,32.802 12.832,45.438 -0.468,63.385 5.016,72.884 10.5,82.382 32.691,79.837 54.58,67.2 76.469,54.563 89.77,36.617 84.286,27.118 z"
       inkscape:connector-curvature="0" /><path
       id="path13"
       d="M 55.5,31.21 C 79.413,45.017 93.943,64.623 87.951,75.001 81.96,85.378 57.716,82.6 33.801,68.791 9.887,54.984 -4.642,35.376 1.349,25.001 7.34,14.622 31.584,17.404 55.5,31.21 z M 5.016,27.118 C -0.468,36.617 12.832,54.561 34.722,67.2 56.609,79.837 78.802,82.382 84.286,72.884 89.77,63.385 76.47,45.439 54.58,32.802 32.691,20.164 10.5,17.62 5.016,27.118 z"
       inkscape:connector-curvature="0" /></g></svg>